<svg width="169" height="36" viewBox="0 0 169 36" fill="none" xmlns="http://www.w3.org/2000/svg">
<rect width="36" height="36" rx="3.6" fill="#151515"/>
<g clip-path="url(#clip0_282_14376)">
<path d="M7 9C7 7.89543 7.89543 7 9 7H19C24.5228 7 29 11.4772 29 17V18C29 24.0751 24.0751 29 18 29H9C7.89543 29 7 28.1046 7 27V9Z" fill="white"/>
<path d="M25 18.0281L15.7627 12.4578V23.5985L25 18.0281Z" fill="#82B55B"/>
<path d="M7 29L12.3462 25.6803V10.3197L7 7L7 29Z" fill="#2E7BEE"/>
</g>
<path d="M52.628 28H48.234L55.098 8.76H59.206L66.044 28H61.572L60.22 23.944H54.006L52.628 28ZM56.606 16.3L55.228 20.408H59.024L57.646 16.3C57.438 15.65 57.204 14.896 57.126 14.428C57.048 14.87 56.84 15.598 56.606 16.3ZM76.7333 15V18.77H75.4593C73.1713 18.77 71.7933 19.784 71.7933 22.358V28H67.7893V15.026H71.5593L71.7673 16.95C72.3133 15.676 73.4573 14.818 75.1993 14.818C75.6673 14.818 76.1873 14.87 76.7333 15ZM84.5178 28H80.5138V18.328H78.0438V15H80.5138V10.97H84.5178V15H86.9878V18.328H84.5178V28ZM96.8213 28H89.2813V8.76H96.5613C102.203 8.76 106.129 12.712 106.129 18.432C106.129 24.048 102.307 28 96.8213 28ZM96.1453 12.66H93.4933V24.1H96.4053C99.7333 24.1 101.683 21.994 101.683 18.432C101.683 14.792 99.6293 12.66 96.1453 12.66ZM110.543 12.972C109.269 12.972 108.255 11.958 108.255 10.684C108.255 9.41 109.269 8.422 110.543 8.422C111.791 8.422 112.805 9.41 112.805 10.684C112.805 11.958 111.791 12.972 110.543 12.972ZM108.567 28V15L112.571 15V28H108.567ZM114.924 21.266C114.924 17.314 117.498 14.558 121.164 14.558C122.932 14.558 124.336 15.234 125.038 16.3L125.246 15H129.016V27.168C129.016 31.822 126.338 34.63 121.892 34.63C117.914 34.63 115.236 32.368 114.872 28.676H118.928C119.006 30.132 120.098 30.99 121.866 30.99C123.79 30.99 125.012 29.846 125.012 28V26.31C124.232 27.246 122.776 27.844 121.086 27.844C117.446 27.844 114.924 25.166 114.924 21.266ZM118.954 21.162C118.954 23.034 120.202 24.36 121.97 24.36C123.79 24.36 125.012 23.086 125.012 21.162C125.012 19.264 123.79 18.042 121.944 18.042C120.176 18.042 118.954 19.316 118.954 21.162ZM134.004 12.972C132.73 12.972 131.716 11.958 131.716 10.684C131.716 9.41 132.73 8.422 134.004 8.422C135.252 8.422 136.266 9.41 136.266 10.684C136.266 11.958 135.252 12.972 134.004 12.972ZM132.028 28V15H136.032V28H132.028ZM144.287 28H140.283V18.328H137.813V15H140.283V10.97H144.287V15H146.757V18.328H144.287V28ZM152.483 28.338C149.727 28.338 148.011 26.726 148.011 24.178C148.011 21.786 149.701 20.304 152.821 20.07L156.461 19.784V19.576C156.461 18.302 155.681 17.626 154.251 17.626C152.561 17.626 151.651 18.276 151.651 19.446H148.323C148.323 16.508 150.741 14.584 154.459 14.584C158.229 14.584 160.361 16.69 160.361 20.408V28H156.825L156.565 26.284C156.149 27.48 154.433 28.338 152.483 28.338ZM153.887 25.374C155.421 25.374 156.487 24.62 156.487 23.138V22.436L154.459 22.618C152.717 22.774 152.093 23.164 152.093 23.996C152.093 24.932 152.665 25.374 153.887 25.374ZM167.237 28H163.233V8.396H167.237V28Z" fill="#151515"/>
<defs>
<clipPath id="clip0_282_14376">
<rect x="7" y="7" width="22" height="22" rx="2" fill="white"/>
</clipPath>
</defs>
</svg>
